# Blender v3.2.0 OBJ File: ''
# www.blender.org
mtllib card.mtl
o Plane_Plane.002
v 1.000000 -0.000000 1.400000
v -1.000000 0.000000 1.400000
v 1.000000 -0.000000 -1.400000
v -1.000000 0.000000 -1.400000
v -1.000000 0.000100 1.400000
v 1.000000 0.000100 1.400000
v -1.000000 0.000100 -1.400000
v 1.000000 0.000100 -1.400000
vt 0.000000 0.000000
vt 1.000000 0.000000
vt 1.000000 1.000000
vt 0.000000 1.000000
vt 0.000000 0.000000
vt 1.000000 0.000000
vt 1.000000 1.000000
vt 0.000000 1.000000
vn 0.0000 1.0000 0.0000
vn -0.0000 -1.0000 0.0000
usemtl back
s off
f 5/1/1 6/2/1 8/3/1 7/4/1
usemtl front
f 1/5/2 2/6/2 4/7/2 3/8/2
